<svg xmlns="http://www.w3.org/2000/svg" width="16" height="16" viewBox="0 0 16 16">
    <path fill="#2C2C2D" fill-rule="nonzero" d="M11.5 1A4.5 4.5 0 0 1 16 5.5c0 2.798-1.417 5.372-3.75 7.61C10.684 14.615 8.548 16 8 16s-2.684-1.386-4.25-2.89C1.417 10.873 0 8.299 0 5.5A4.5 4.5 0 0 1 4.5 1 4.46 4.46 0 0 1 8 2.698 4.46 4.46 0 0 1 11.5 1zm0 1c-1.29 0-2.447.713-3.06 1.84a.5.5 0 0 1-.88 0A3.481 3.481 0 0 0 4.5 2 3.5 3.5 0 0 0 1 5.5c0 2.483 1.288 4.822 3.442 6.89C5.826 13.716 7.803 15 8 15c.197 0 2.174-1.283 3.558-2.61C13.712 10.321 15 7.982 15 5.5A3.5 3.5 0 0 0 11.5 2z"/>
</svg>
