<svg xmlns="http://www.w3.org/2000/svg" width="16" height="16" viewBox="0 0 16 16">
    <path fill="#2C2C2D" fill-rule="nonzero" d="M6.953 13.453C7.256 13.151 7.605 13 8 13c.395 0 .744.151 1.047.453.302.303.453.652.453 1.047 0 .395-.151.744-.453 1.047C8.744 15.849 8.395 16 8 16c-.395 0-.744-.151-1.047-.453-.302-.303-.453-.652-.453-1.047 0-.395.151-.744.453-1.047zm0-6C7.256 7.151 7.605 7 8 7c.395 0 .744.151 1.047.453.302.303.453.652.453 1.047 0 .395-.151.744-.453 1.047C8.744 9.849 8.395 10 8 10c-.395 0-.744-.151-1.047-.453C6.651 9.244 6.5 8.895 6.5 8.5c0-.395.151-.744.453-1.047zm2.094-3.906C8.744 3.849 8.395 4 8 4c-.395 0-.744-.151-1.047-.453C6.651 3.244 6.5 2.895 6.5 2.5c0-.395.151-.744.453-1.047C7.256 1.151 7.605 1 8 1c.395 0 .744.151 1.047.453.302.303.453.652.453 1.047 0 .395-.151.744-.453 1.047z"/>
</svg>
