<svg width="382" height="88" viewBox="0 0 382 88" fill="none" xmlns="http://www.w3.org/2000/svg">
<path fill-rule="evenodd" clip-rule="evenodd" d="M66.5774 6.52796V3.67998C66.5774 1.64763 64.9246 -0.000671387 62.8868 -0.000671387H53.5696C51.5312 -0.000671387 49.879 1.64763 49.879 3.67998V5.72172H12.0527C7.20809 5.72172 0 8.9232 0 17.7426V67.4501C0 72.2823 3.21014 79.471 12.0527 79.471H61.8994C66.7446 79.471 73.9527 76.2695 73.9527 67.4501V17.7426C73.9527 13.8857 71.9013 8.53388 66.5774 6.52796" fill="#FF2636"/>
<path fill-rule="evenodd" clip-rule="evenodd" d="M60.6511 40.3949H54.5517C53.3311 40.3949 52.3419 41.382 52.3419 42.5987C52.3419 43.8154 53.3311 44.8025 54.5517 44.8025H60.6511C61.8711 44.8025 62.8609 43.8154 62.8609 42.5987C62.8609 41.382 61.8711 40.3949 60.6511 40.3949" fill="#FFFFFE"/>
<path fill-rule="evenodd" clip-rule="evenodd" d="M51.0136 36.366C51.51 37.4782 52.8159 37.9779 53.9311 37.4823L59.5029 35.0084C60.6175 34.5139 61.1192 33.2109 60.6228 32.0993C60.1265 30.9877 58.8205 30.4874 57.7053 30.9824L52.1335 33.457C51.0183 33.952 50.5173 35.2538 51.0136 36.366" fill="#FFFFFE"/>
<path fill-rule="evenodd" clip-rule="evenodd" d="M50.3783 31.0476L54.4599 26.5273C55.2766 25.6229 55.203 24.2295 54.2962 23.415C53.3894 22.6011 51.9922 22.674 51.1756 23.5783L47.0946 28.0986C46.2779 29.0029 46.3509 30.3964 47.2577 31.2109C48.165 32.0247 49.5622 31.9519 50.3783 31.0476" fill="#FFFFFE"/>
<path fill-rule="evenodd" clip-rule="evenodd" d="M44.5092 58.5879C44.1317 57.4299 42.8858 56.7969 41.7253 57.1733C41.7235 57.1739 41.7224 57.1745 41.7212 57.1745C40.2262 57.6583 38.6329 57.9232 36.9766 57.9232C28.4908 57.9232 21.6113 51.0622 21.6113 42.5987C21.6113 34.1358 28.4908 27.2754 36.9766 27.2754C38.6329 27.2754 40.2262 27.5396 41.7206 28.0229C41.7218 28.0235 41.7235 28.0241 41.7247 28.0246C42.8852 28.4011 44.1317 27.7674 44.5092 26.6101L46.3933 20.8248C46.7707 19.6674 46.1354 18.4243 44.9749 18.0485V18.0473C42.4554 17.2311 39.7687 16.7848 36.9766 16.7848C22.6812 16.7848 11.093 28.3423 11.093 42.5987C11.093 56.8556 22.6812 68.4126 36.9766 68.4126C39.7687 68.4126 42.4554 67.9663 44.9749 67.1506V67.1501C44.9749 67.1495 44.9749 67.1495 44.9755 67.1495C46.136 66.7731 46.7707 65.5305 46.3939 64.3725L44.5092 58.5879" fill="#FFFFFE"/>
<path fill-rule="evenodd" clip-rule="evenodd" d="M50.3789 54.1498C49.5622 53.2454 48.165 53.1726 47.2583 53.9871C46.3509 54.8016 46.2785 56.1944 47.0946 57.0993L51.1761 61.6197C51.9928 62.524 53.3894 62.5968 54.2968 61.7823C55.2035 60.9685 55.2765 59.5744 54.4599 58.6701L50.3789 54.1498" fill="#FFFFFE"/>
<path fill-rule="evenodd" clip-rule="evenodd" d="M59.5029 50.189L53.9311 47.7145C52.8159 47.2195 51.51 47.7198 51.0136 48.8314C50.5173 49.9436 51.0189 51.246 52.1335 51.741L57.7053 54.2149C58.8205 54.71 60.1265 54.2102 60.6228 53.0981C61.1192 51.9871 60.6175 50.684 59.5029 50.189" fill="#FFFFFE"/>
<path fill-rule="evenodd" clip-rule="evenodd" d="M136.535 63.64C136.535 65.065 135.395 66.3 133.875 66.3H129.695C128.27 66.3 127.035 65.065 127.035 63.64V4.66C127.035 3.14 128.27 2 129.695 2H133.875C135.395 2 136.535 3.14 136.535 4.66V26.97C136.535 27.825 137.58 28.3 138.245 27.635C141.475 24.31 145.18 22.6 149.36 22.6C157.435 22.6 162.66 27.73 162.66 36.47V63.64C162.66 65.065 161.52 66.3 160 66.3H155.82C154.395 66.3 153.16 65.065 153.16 63.64V39.51C153.16 34.38 150.88 31.815 146.225 31.815C142.9 31.815 139.86 33.81 137.295 37.8C136.82 38.465 136.535 39.225 136.535 39.985V63.64ZM177.769 7.03C180.144 9.405 180.144 13.395 177.769 15.77C175.394 18.145 171.119 18.145 168.554 15.77C166.179 13.395 166.179 9.405 168.554 7.03C171.119 4.655 175.394 4.655 177.769 7.03ZM177.959 63.64C177.959 65.065 176.724 66.3 175.299 66.3H171.119C169.599 66.3 168.459 65.065 168.459 63.64V26.685C168.459 25.165 169.599 24.025 171.119 24.025H175.299C176.724 24.025 177.959 25.165 177.959 26.685V63.64ZM239.447 66.3C240.967 66.3 242.107 65.065 242.107 63.64V39.985C242.107 39.225 242.392 38.465 242.867 37.8C245.432 33.81 248.472 31.815 251.797 31.815C256.452 31.815 258.732 34.38 258.732 39.51V63.64C258.732 65.065 259.967 66.3 261.392 66.3H265.572C267.092 66.3 268.232 65.065 268.232 63.64V36.47C268.232 27.73 263.007 22.6 254.932 22.6C250.752 22.6 247.047 24.31 243.817 27.635C243.152 28.3 242.107 27.825 242.107 26.97V4.66C242.107 3.14 240.967 2 239.447 2H235.267C233.842 2 232.607 3.14 232.607 4.66V63.64C232.607 65.065 233.842 66.3 235.267 66.3H239.447ZM303.196 62.785C299.871 66.11 295.596 67.725 290.371 67.725C285.241 67.725 280.966 66.11 277.641 62.785C274.316 59.46 272.606 55.185 272.606 49.865V26.685C272.606 25.165 273.746 24.025 275.266 24.025H279.446C280.871 24.025 282.106 25.165 282.106 26.685V50.055C282.106 55.09 285.431 58.415 290.371 58.415C295.311 58.415 298.731 55.09 298.731 50.055V26.685C298.731 25.165 299.871 24.025 301.391 24.025H305.571C306.996 24.025 308.231 25.165 308.231 26.685V49.865C308.231 55.185 306.521 59.46 303.196 62.785ZM323.264 15.77C325.639 13.395 325.639 9.405 323.264 7.03C320.889 4.655 316.614 4.655 314.049 7.03C311.674 9.405 311.674 13.395 314.049 15.77C316.614 18.145 320.889 18.145 323.264 15.77ZM320.794 66.3C322.219 66.3 323.454 65.065 323.454 63.64V26.685C323.454 25.165 322.219 24.025 320.794 24.025H316.614C315.094 24.025 313.954 25.165 313.954 26.685V63.64C313.954 65.065 315.094 66.3 316.614 66.3H320.794ZM340.85 85.3C340.375 86.535 339.425 87.2 338 87.2H333.345C331.825 87.2 330.875 85.965 331.54 84.54L339.805 65.255C340.09 64.59 340.09 63.925 339.805 63.165L324.795 27.065C324.13 25.45 325.08 24.025 326.885 24.025H332.015C333.535 24.025 334.485 24.69 334.865 26.115L344.365 49.77C344.65 50.815 345.98 50.815 346.265 49.77L355.955 26.02C356.43 24.69 357.38 24.025 358.805 24.025H362.985C364.79 24.025 365.74 25.45 365.075 27.065L340.85 85.3ZM375.833 15.77C378.208 13.395 378.208 9.405 375.833 7.03C373.458 4.655 369.183 4.655 366.618 7.03C364.243 9.405 364.243 13.395 366.618 15.77C369.183 18.145 373.458 18.145 375.833 15.77ZM373.363 66.3C374.788 66.3 376.023 65.065 376.023 63.64V26.685C376.023 25.165 374.788 24.025 373.363 24.025H369.183C367.663 24.025 366.523 25.165 366.523 26.685V63.64C366.523 65.065 367.663 66.3 369.183 66.3H373.363ZM190.471 45.5484C190.481 49.3445 191.755 52.5504 194.256 55.0756C196.835 57.6801 200.024 59 203.735 59C207.383 59 210.539 57.6801 213.118 55.0756C215.683 52.4843 216.989 49.279 217 45.5484C217.004 41.7505 215.696 38.5289 213.119 35.9237C210.54 33.3199 207.384 32 203.737 32C200.025 32 196.835 33.3199 194.256 35.9244C191.743 38.4634 190.47 41.6851 190.47 45.5L190 45.5497L190.471 45.5484ZM202.629 67.7501C196.637 67.7501 191.548 65.5551 187.502 61.225C183.442 56.8826 181.38 51.5366 181.369 45.3333C181.368 38.9908 183.561 33.6548 187.886 29.4245C192.3 25.1044 197.727 22.9141 204.018 22.9141C210.34 22.9141 215.738 25.1061 220.06 29.4274C224.442 33.6231 226.668 38.9608 226.668 45.2857L226.666 64.7142C226.666 66.3596 225.277 67.7495 223.632 67.7495H220.208C218.459 67.7495 217.275 66.5833 217.275 64.6778L217.173 61.0301C217.165 60.9637 217.119 60.7341 216.937 60.7341C216.813 60.7341 216.606 60.8304 216.395 61.1023C213.112 65.5105 208.478 67.7501 202.629 67.7501ZM118.781 59.04C118.314 57.9749 117.04 57.5473 115.931 57.8993C114.649 58.3064 113.272 58.51 111.8 58.51C108.095 58.51 104.865 57.18 102.3 54.615C99.735 52.05 98.5 48.82 98.5 45.115C98.5 41.41 99.735 38.18 102.3 35.615C104.865 33.05 108.095 31.72 111.8 31.72C113.257 31.72 114.632 31.9321 115.932 32.3632C117.124 32.758 118.512 32.2438 118.915 31.0556L120.561 26.2085C120.894 25.2296 120.428 24.1486 119.45 23.8132C117.085 23.0019 114.53 22.6 111.8 22.6C105.435 22.6 100.02 24.785 95.555 29.155C91.185 33.43 89 38.75 89 45.115C89 51.48 91.185 56.8 95.555 61.17C100.02 65.54 105.435 67.725 111.8 67.725C114.709 67.725 117.406 67.2478 119.884 66.2934C120.879 65.9101 121.289 64.759 120.861 63.7825L118.781 59.04Z" fill="#6D6E71"/>
</svg>
